<svg id="color" height="512" viewBox="0 0 24 24" width="512" xmlns="http://www.w3.org/2000/svg"><path d="m19.25 24h-14.5c-.414 0-.75-.336-.75-.75v-13.25h16v13.25c0 .414-.336.75-.75.75z" fill="#607d8b"/><path d="m24 5h-24v-4c0-.552.447-1 1-1h4c.553 0 1 .448 1 1v1h3v-1c0-.552.447-1 1-1h4c.553 0 1 .448 1 1v1h3v-1c0-.552.447-1 1-1h4c.553 0 1 .448 1 1z" fill="#607d8b"/><g fill="#fff"><path d="m15 24h-6v-4c0-1.657 1.343-3 3-3s3 1.343 3 3z"/><path d="m17 15h-2c-.553 0-1-.448-1-1v-1c0-.552.447-1 1-1h2c.553 0 1 .448 1 1v1c0 .552-.447 1-1 1z"/><path d="m9 15h-2c-.553 0-1-.448-1-1v-1c0-.552.447-1 1-1h2c.553 0 1 .448 1 1v1c0 .552-.447 1-1 1z"/></g><path d="m0 5 4 5h16l4-5z" fill="#90a4ae"/><path d="m7 15c-.553 0-1-.448-1-1v-1c0-.552.447-1 1-1h2c.553 0 1 .448 1 1v1c0 .552-.447 1-1 1zm5-5h-8v13.25c0 .414.336.75.75.75h7.25-3v-4c0-1.657 1.343-3 3-3z" fill="#546d79"/><path d="m12 0h-2c-.553 0-1 .448-1 1v1h-3v-1c0-.552-.447-1-1-1h-4c-.553 0-1 .448-1 1v4h12z" fill="#546d79"/><path d="m12 17c-1.657 0-3 1.343-3 3v4h3z" fill="#dedede"/><path d="m9 12h-2c-.553 0-1 .448-1 1v1c0 .552.447 1 1 1h2c.553 0 1-.448 1-1v-1c0-.552-.447-1-1-1z" fill="#dedede"/><path d="m12 5h-12l4 5h8z" fill="#7d8f97"/></svg>