<?xml version="1.0" encoding="UTF-8" standalone="no"?>
<svg
   xmlns:dc="http://purl.org/dc/elements/1.1/"
   xmlns:cc="http://creativecommons.org/ns#"
   xmlns:rdf="http://www.w3.org/1999/02/22-rdf-syntax-ns#"
   xmlns:svg="http://www.w3.org/2000/svg"
   xmlns="http://www.w3.org/2000/svg"
   xmlns:sodipodi="http://sodipodi.sourceforge.net/DTD/sodipodi-0.dtd"
   xmlns:inkscape="http://www.inkscape.org/namespaces/inkscape"
   sodipodi:docname="picto_bzh.svg"
   inkscape:version="0.92.3 (2405546, 2018-03-11)"
   id="svg8"
   version="1.1"
   viewBox="0 0 210 297"
   height="297mm"
   width="210mm">
  <defs
     id="defs2" />
  <sodipodi:namedview
     inkscape:window-maximized="1"
     inkscape:window-y="-8"
     inkscape:window-x="-8"
     inkscape:window-height="987"
     inkscape:window-width="1680"
     showgrid="false"
     inkscape:document-rotation="0"
     inkscape:current-layer="layer1"
     inkscape:document-units="mm"
     inkscape:cy="633.39576"
     inkscape:cx="170.60509"
     inkscape:zoom="0.7"
     inkscape:pageshadow="2"
     inkscape:pageopacity="0.0"
     borderopacity="1.0"
     bordercolor="#666666"
     pagecolor="#ffffff"
     id="base" />
  <metadata
     id="metadata5">
    <rdf:RDF>
      <cc:Work
         rdf:about="">
        <dc:format>image/svg+xml</dc:format>
        <dc:type
           rdf:resource="http://purl.org/dc/dcmitype/StillImage" />
        <dc:title />
      </cc:Work>
    </rdf:RDF>
  </metadata>
  <g
     id="layer1"
     inkscape:groupmode="layer"
     inkscape:label="Calque 1">
    <path
       sodipodi:nodetypes="cccccccccccccccccccccccccccccccccccccccccccc"
       id="path847"
       d="m 60.570685,74.27232 8.126486,-1.322917 2.456847,1.039434 2.83482,-0.188986 1.889882,-1.984375 6.3311,-0.09449 4.252233,6.898063 4.913691,-1.889879 2.36235,1.889879 3.590774,-3.212796 2.456844,2.078868 h 3.590768 l 1.13393,4.819198 3.59078,-1.700895 1.41741,5.291666 -1.32292,4.157739 1.22842,1.889877 -3.63564,5.41384 1.19501,3.541154 -0.96115,2.1008 c 7.19546,3.77634 0.18058,3.61518 -2.48047,3.9215 l 2.33061,3.49965 -3.55736,3.44567 -3.480067,1.91281 -8.59322,-5.59808 -0.09449,-2.36235 -4.441219,-1.13393 1.133928,-4.81919 -3.212799,-1.13392 -2.83482,-2.456854 -2.36235,3.023814 v -2.929314 l -7.276042,-4.8192 -2.362353,0.66146 -2.267855,-2.740327 -2.222986,1.623597 -2.596212,-1.32292 -0.0506,-2.924564 -3.051488,-3.980216 1.945237,0.445779 1.178801,-3.484815 -3.401787,-1.723822 -0.194717,-2.956991 z"
       style="fill:none;stroke:#808080;stroke-width:4;stroke-linecap:butt;stroke-linejoin:round;stroke-miterlimit:4;stroke-dasharray:none;stroke-opacity:1"
       inkscape:export-xdpi="458.57867"
       inkscape:export-ydpi="458.57867" />
  </g>
</svg>
